<svg width="15" height="14" viewBox="0 0 15 14" fill="none" xmlns="http://www.w3.org/2000/svg">
<g id="free-icon-vk-152813 1" clip-path="url(#clip0_20_906)">
<g id="Group">
<path id="Vector" d="M5.52785 3.1035C5.3527 3.191 5.15566 3.39608 5.16934 3.48084C5.17482 3.53006 5.21587 3.55194 5.37186 3.60389C5.71395 3.71053 5.89731 3.93475 5.95752 4.30663C6.04236 4.83436 6.03688 5.93358 5.94657 6.36287C5.80973 7.02733 5.47312 7.0328 4.9723 6.37108C4.51801 5.77225 3.97887 4.81248 3.59026 3.91834C3.43974 3.57108 3.34669 3.44256 3.18523 3.3578C3.07576 3.30311 3.03744 3.30037 1.94549 3.30311C0.752287 3.30311 0.681132 3.30858 0.56619 3.43163C0.514193 3.48905 0.505983 3.51912 0.51693 3.65584C0.527876 3.78709 0.588084 3.93748 0.864492 4.52538C1.48299 5.83788 2.06317 6.89334 2.6543 7.77928C3.6231 9.2285 4.40033 9.99139 5.39649 10.4726C6.1573 10.839 6.85516 10.9785 7.8349 10.9621C8.28099 10.9512 8.33572 10.9457 8.4534 10.8883C8.63676 10.798 8.68602 10.6805 8.7216 10.2621C8.75718 9.86288 8.8037 9.66873 8.92138 9.43358C9.06095 9.15194 9.26347 9.06444 9.50977 9.17928C9.61924 9.2285 9.97501 9.57577 10.5525 10.1937C10.9411 10.6121 11.1463 10.7707 11.4309 10.8828L11.6088 10.9512L12.8869 10.9594C14.3045 10.9676 14.2908 10.9703 14.4276 10.7898C14.5207 10.6668 14.5481 10.4316 14.4879 10.2594C14.362 9.90116 13.9569 9.40623 13.0839 8.54491C12.2821 7.75467 12.2301 7.68631 12.2629 7.42928C12.2848 7.24334 12.3532 7.1367 13.0812 6.1578C13.426 5.69569 13.8009 5.17616 13.9186 5.00389C14.3154 4.41873 14.5234 3.95936 14.5234 3.67498C14.5234 3.54373 14.5125 3.51092 14.4468 3.4453C14.3018 3.30311 14.2388 3.29491 12.8267 3.29491C11.6034 3.29491 11.5213 3.29764 11.4227 3.34686C11.2886 3.41248 11.2175 3.52186 11.0615 3.91014C10.6592 4.89452 10.0845 5.88163 9.56998 6.47225C9.206 6.89061 9.07463 6.93983 8.8858 6.73475C8.69697 6.53514 8.69423 6.50506 8.69423 4.99295C8.69423 3.55467 8.68055 3.40155 8.55192 3.22108C8.52182 3.17459 8.44519 3.11444 8.38225 3.08709C8.27825 3.04061 8.17973 3.03514 6.96736 3.03514H5.66743L5.52785 3.1035Z" fill="#003868"/>
</g>
</g>
<defs>
<clipPath id="clip0_20_906">
<rect width="14.012" height="14" fill="white" transform="translate(0.51123)"/>
</clipPath>
</defs>
</svg>
