<svg width="15" height="14" viewBox="0 0 15 14" fill="none" xmlns="http://www.w3.org/2000/svg">
<g id="&#208;&#152;&#208;&#186;&#208;&#190;&#208;&#189;&#208;&#186;&#208;&#176;" clip-path="url(#clip0_20_897)">
<g id="Group">
<path id="Vector" d="M7.5008 0C3.85048 0 0.888672 2.95739 0.888672 6.60227C0.888672 8.06176 1.36179 9.40603 2.16186 10.5006L1.31948 12.9895L3.94664 12.1714C4.97365 12.8243 6.19299 13.2045 7.5008 13.2045C11.1511 13.2045 14.1129 10.2472 14.1129 6.60227C14.1129 2.95739 11.1511 0 7.5008 0ZM10.528 10.1435C9.32789 10.6236 7.89699 10.1588 6.33147 8.97202C4.76594 7.78523 3.73508 6.11449 3.66584 4.87393C3.59661 3.63336 4.60824 3.00732 5.15829 3.01116C5.70833 3.015 6.31223 4.77023 6.31993 5.03908C6.32762 5.31177 5.64679 5.79571 5.61986 6.02616C5.59294 6.2566 6.54687 7.39347 6.95075 7.70073C7.35079 8.00415 8.17779 8.58795 8.60475 8.53417C9.02786 8.47656 9.30866 7.62776 9.57791 7.57398C9.84717 7.52021 11.3165 8.24996 11.4627 8.43816C11.6089 8.63019 11.5935 9.72097 10.528 10.1435Z" fill="#003868"/>
</g>
</g>
<defs>
<clipPath id="clip0_20_897">
<rect width="14.012" height="14" fill="white" transform="translate(0.409668)"/>
</clipPath>
</defs>
</svg>
