<svg width="131" height="55" viewBox="0 0 131 55" fill="none" xmlns="http://www.w3.org/2000/svg">
<path d="M36.1719 39.1003L27.6609 43.9003L20.8723 47.8003L17.7313 46.0003L14.8943 44.4003L10.0309 41.7003L8.71368 40.9003L7.29517 40.1003L6.99121 39.9003L5.5727 39.1003V21.7003L20.8723 13.0003L23.304 14.4003L27.3569 10.4003L20.8723 6.70032L0 18.5003V42.2003L20.8723 54.1003L41.7446 42.2003V32.3003L36.1719 37.8003V39.1003ZM35.1587 14.8003L31.1058 18.8003L36.1719 21.7003V25.7003L41.6433 20.3003V18.6003L35.1587 14.8003Z" fill="#003868"/>
<path d="M43.8726 4.00031L33.7404 14.0003L29.6875 18.0003L28.3704 19.2003L8.51127 38.8003L7.29541 38.1003V32.4003L39.921 0.100311L43.8726 4.00031Z" fill="#003868"/>
<path d="M32.7271 26.9003L16.2116 43.2003L11.3481 40.4003L28.8768 23.1003L32.7271 26.9003Z" fill="#003868"/>
<path d="M46 25.9003L41.6431 30.2003L36.1717 35.6003L32.5241 39.2003L20.8721 45.8003L19.0483 44.8003L36.1717 27.9003L41.6431 22.5003L42.0484 22.0003L46 25.9003Z" fill="#003868"/>
<path d="M65.78 21.6654L60.76 15.0854V21.6654H57.32V8.46537H60.76V14.4454L65.12 8.46537H69.12L64.58 14.7454L69.86 21.6654H65.78ZM77.0263 11.4254C77.9463 11.4254 78.7729 11.652 79.5063 12.1054C80.2396 12.5454 80.8063 13.1587 81.2062 13.9454C81.6196 14.732 81.8263 15.632 81.8263 16.6454C81.8263 17.6587 81.6196 18.5654 81.2062 19.3654C80.7929 20.152 80.2196 20.772 79.4863 21.2254C78.7663 21.6787 77.9463 21.9054 77.0263 21.9054C75.9729 21.9054 75.1196 21.5987 74.4663 20.9854V25.2654H71.0263V11.6654H74.1663V12.7054C74.7929 11.852 75.7463 11.4254 77.0263 11.4254ZM76.3463 18.7854C76.8796 18.7854 77.3396 18.5987 77.7263 18.2254C78.1129 17.852 78.3063 17.332 78.3063 16.6654C78.3063 15.9987 78.1129 15.4787 77.7263 15.1054C77.3529 14.732 76.8929 14.5454 76.3463 14.5454C75.8129 14.5454 75.3529 14.7254 74.9663 15.0854C74.5929 15.4454 74.4063 15.9654 74.4063 16.6454C74.4063 17.3254 74.5929 17.852 74.9663 18.2254C75.3529 18.5987 75.8129 18.7854 76.3463 18.7854ZM92.9653 17.8654H86.5653C86.9386 18.6254 87.6853 19.0054 88.8053 19.0054C89.6986 19.0054 90.572 18.7454 91.4253 18.2254L92.6653 20.5654C91.4786 21.4587 90.152 21.9054 88.6853 21.9054C87.6053 21.9054 86.6386 21.6787 85.7853 21.2254C84.932 20.7587 84.2653 20.132 83.7853 19.3454C83.3053 18.5454 83.0653 17.652 83.0653 16.6654C83.0653 15.692 83.2986 14.8054 83.7653 14.0054C84.2453 13.2054 84.892 12.5787 85.7053 12.1254C86.5186 11.6587 87.4186 11.4254 88.4053 11.4254C89.3653 11.4254 90.2053 11.6387 90.9253 12.0654C91.6453 12.492 92.1986 13.072 92.5853 13.8054C92.9853 14.5254 93.1853 15.312 93.1853 16.1654C93.1853 16.7654 93.112 17.332 92.9653 17.8654ZM88.2653 14.1254C87.8386 14.1254 87.4586 14.2587 87.1253 14.5254C86.8053 14.7787 86.5786 15.1454 86.4453 15.6254H89.9253C89.912 15.172 89.7453 14.812 89.4253 14.5454C89.1053 14.2654 88.7186 14.1254 88.2653 14.1254ZM106.4 18.7854V24.4854H103.16V21.6654H96.9595V24.4854H93.7195V18.7854H94.7795C95.1395 18.4387 95.4062 17.892 95.5795 17.1454C95.7529 16.3987 95.8729 15.3187 95.9395 13.9054L96.0395 11.6654H104.74V18.7854H106.4ZM101.32 18.7854V14.5454H99.0395V14.5854C98.9862 16.3454 98.7329 17.7454 98.2795 18.7854H101.32ZM117.996 11.4254V21.6654H114.556V17.1654L109.296 21.9054H108.196V11.6654H111.636V16.1654L116.896 11.4254H117.996ZM122.303 14.5454H119.403V11.6654H128.663V14.5454H125.743V21.6654H122.303V14.5454Z" fill="#003868"/>
<path d="M70.76 33.2254V46.6654H67.32V41.1254L64.58 44.3254H63.48L60.76 41.1454V46.6654H57.32V33.2254H58.42L64.04 40.0854L69.66 33.2254H70.76ZM77.4966 36.4254C78.8966 36.4254 80.0032 36.8054 80.8166 37.5654C81.6299 38.3254 82.0366 39.4254 82.0366 40.8654V46.6654H78.8966V45.8454C78.1499 46.552 77.1899 46.9054 76.0166 46.9054C75.2966 46.9054 74.6766 46.7654 74.1566 46.4854C73.6366 46.2054 73.2432 45.832 72.9766 45.3654C72.7099 44.8854 72.5766 44.3654 72.5766 43.8054C72.5766 42.872 72.9232 42.1454 73.6166 41.6254C74.3232 41.092 75.2832 40.8254 76.4966 40.8254H78.5966V40.6654C78.5966 40.2787 78.4699 39.972 78.2166 39.7454C77.9766 39.5054 77.5966 39.3854 77.0766 39.3854C76.6232 39.3854 76.2099 39.4854 75.8366 39.6854C75.4766 39.872 75.0566 40.1787 74.5766 40.6054L72.9766 38.4254C73.6432 37.7454 74.3366 37.2454 75.0566 36.9254C75.7766 36.592 76.5899 36.4254 77.4966 36.4254ZM77.0766 44.4654C77.5166 44.4654 77.8766 44.3387 78.1566 44.0854C78.4499 43.8187 78.5966 43.4587 78.5966 43.0054V42.9254H76.9766C76.6832 42.9254 76.4566 42.992 76.2966 43.1254C76.1366 43.2587 76.0566 43.4454 76.0566 43.6854C76.0566 43.9254 76.1432 44.1187 76.3166 44.2654C76.5032 44.3987 76.7566 44.4654 77.0766 44.4654ZM89.1503 46.9054C88.1503 46.9054 87.2303 46.6787 86.3903 46.2254C85.5636 45.7587 84.9036 45.1254 84.4103 44.3254C83.9303 43.5254 83.6903 42.6387 83.6903 41.6654C83.6903 40.692 83.9303 39.8054 84.4103 39.0054C84.9036 38.2054 85.5636 37.5787 86.3903 37.1254C87.2303 36.6587 88.1503 36.4254 89.1503 36.4254C90.177 36.4254 91.077 36.6654 91.8503 37.1454C92.6236 37.6254 93.217 38.2787 93.6303 39.1054L91.2503 40.9254C90.9836 40.4987 90.6836 40.172 90.3503 39.9454C90.0303 39.7054 89.6436 39.5854 89.1903 39.5854C88.5903 39.5854 88.1103 39.7787 87.7503 40.1654C87.3903 40.552 87.2103 41.052 87.2103 41.6654C87.2103 42.2787 87.3903 42.7787 87.7503 43.1654C88.1103 43.552 88.5903 43.7454 89.1903 43.7454C89.6436 43.7454 90.0303 43.632 90.3503 43.4054C90.6836 43.1654 90.9836 42.8387 91.2503 42.4254L93.6303 44.2254C93.217 45.052 92.6236 45.7054 91.8503 46.1854C91.077 46.6654 90.177 46.9054 89.1503 46.9054ZM97.225 39.5454H94.325V36.6654H103.585V39.5454H100.665V46.6654H97.225V39.5454ZM114.313 42.8654H107.913C108.286 43.6254 109.033 44.0054 110.153 44.0054C111.046 44.0054 111.92 43.7454 112.773 43.2254L114.013 45.5654C112.826 46.4587 111.5 46.9054 110.033 46.9054C108.953 46.9054 107.986 46.6787 107.133 46.2254C106.28 45.7587 105.613 45.132 105.133 44.3454C104.653 43.5454 104.413 42.652 104.413 41.6654C104.413 40.692 104.646 39.8054 105.113 39.0054C105.593 38.2054 106.24 37.5787 107.053 37.1254C107.866 36.6587 108.766 36.4254 109.753 36.4254C110.713 36.4254 111.553 36.6387 112.273 37.0654C112.993 37.492 113.546 38.072 113.933 38.8054C114.333 39.5254 114.533 40.312 114.533 41.1654C114.533 41.7654 114.46 42.332 114.313 42.8654ZM109.613 39.1254C109.186 39.1254 108.806 39.2587 108.473 39.5254C108.153 39.7787 107.926 40.1454 107.793 40.6254H111.273C111.26 40.172 111.093 39.812 110.773 39.5454C110.453 39.2654 110.066 39.1254 109.613 39.1254ZM122.28 36.4254C123.2 36.4254 124.027 36.652 124.76 37.1054C125.493 37.5454 126.06 38.1587 126.46 38.9454C126.873 39.732 127.08 40.632 127.08 41.6454C127.08 42.6587 126.873 43.5654 126.46 44.3654C126.047 45.152 125.473 45.772 124.74 46.2254C124.02 46.6787 123.2 46.9054 122.28 46.9054C121.227 46.9054 120.373 46.5987 119.72 45.9854V50.2654H116.28V36.6654H119.42V37.7054C120.047 36.852 121 36.4254 122.28 36.4254ZM121.6 43.7854C122.133 43.7854 122.593 43.5987 122.98 43.2254C123.367 42.852 123.56 42.332 123.56 41.6654C123.56 40.9987 123.367 40.4787 122.98 40.1054C122.607 39.732 122.147 39.5454 121.6 39.5454C121.067 39.5454 120.607 39.7254 120.22 40.0854C119.847 40.4454 119.66 40.9654 119.66 41.6454C119.66 42.3254 119.847 42.852 120.22 43.2254C120.607 43.5987 121.067 43.7854 121.6 43.7854Z" fill="#FF1B1C"/>
</svg>
