<?xml version="1.0" encoding="utf-8"?>
<!-- Generator: Adobe Illustrator 24.2.1, SVG Export Plug-In . SVG Version: 6.00 Build 0)  -->
<!DOCTYPE svg PUBLIC "-//W3C//DTD SVG 1.1//EN" "http://www.w3.org/Graphics/SVG/1.1/DTD/svg11.dtd" [
	<!ENTITY ns_extend "http://ns.adobe.com/Extensibility/1.0/">
	<!ENTITY ns_ai "http://ns.adobe.com/AdobeIllustrator/10.0/">
	<!ENTITY ns_graphs "http://ns.adobe.com/Graphs/1.0/">
	<!ENTITY ns_vars "http://ns.adobe.com/Variables/1.0/">
	<!ENTITY ns_imrep "http://ns.adobe.com/ImageReplacement/1.0/">
	<!ENTITY ns_sfw "http://ns.adobe.com/SaveForWeb/1.0/">
	<!ENTITY ns_custom "http://ns.adobe.com/GenericCustomNamespace/1.0/">
	<!ENTITY ns_adobe_xpath "http://ns.adobe.com/XPath/1.0/">
]>
<svg version="1.1" id="Слой_1" xmlns:x="&ns_extend;" xmlns:i="&ns_ai;" xmlns:graph="&ns_graphs;"
	 xmlns="http://www.w3.org/2000/svg" xmlns:xlink="http://www.w3.org/1999/xlink" x="0px" y="0px" viewBox="0 0 1153.3 391.7"
	 style="enable-background:new 0 0 1153.3 391.7;" xml:space="preserve">
<style type="text/css">
	.st0{fill:#EA5616;}
	.st1{fill:#2C2D84;}
</style>
<metadata>
	<sfw  xmlns="&ns_sfw;">
		<slices></slices>
		<sliceSourceBounds  bottomLeftOrigin="true" height="728.5" width="1108" x="139" y="192.7"></sliceSourceBounds>
	</sfw>
</metadata>
<polygon class="st0" points="236.8,23.9 124.5,136.1 236.8,136.1 236.8,360.6 349,248.6 349,23.9 "/>
<polygon class="st1" points="124.5,360.6 236.8,248.4 124.5,248.4 124.5,23.9 12.3,135.9 12.3,360.6 "/>
<path class="st1" d="M461.3,304.5h58.9v-174H610v174H669V80H461.3V304.5z M1033.8,164.1h-50.3v-33.6h112.1V80H924.5v224.5
	c0,0,84.1,0,112.1,0c44.9,0,78.6-22.5,78.6-70.2C1115.2,186.6,1081.5,164.1,1033.8,164.1 M1028.2,256.8h-44.7v-44.9h44.7
	c13.9,0,28,5.5,28,22.4C1056.1,251.2,1042.1,256.8,1028.2,256.8 M813.2,256.7c-39.3,0-61.4-28.8-61.4-64.5
	c0-28.6,16.1-64.5,60.3-64.5c27.6,0,45.4,16.9,51.7,24.7l35.8-35.8c-21.6-25.8-54.1-42.2-90.4-42.2c-65.1,0-116.5,48.2-116.5,117.9
	c0,65.1,51.4,117.9,116.5,117.9c39,0,73.5-18.9,95-48.1l-36.1-36.1C856.8,243.8,838.2,256.7,813.2,256.7"/>
</svg>
